#!OML:ASF F:\VICON\USERDATA\INSTALL\rory3\rory3.ASF
:FULLY-SPECIFIED
:DEGREES
350
root -3.6659 16.749 -22.201 179.106 -54.0615 -530.998
lowerback -8.9334 -4.03854 1.69168
upperback -5.75988 -5.84288 1.5685
thorax -0.98425 -3.09515 0.217656
lowerneck -8.85141 -5.23095 -14.2507
upperneck 26.3414 -9.72773 12.7819
head 11.2727 -5.08675 5.80972
rclavicle 1.60519e-014 -2.26615e-014
rhumerus -41.7191 4.15382 -89.1785
rradius 33.1356
rwrist 7.39805
rhand -19.3753 -49.7219
rfingers 7.12502
rthumb 6.94288 -79.588
lclavicle 1.60519e-014 -2.26615e-014
lhumerus -25.6524 -6.48988 54.2808
lradius 69.6831
lwrist 10.0745
lhand -40.9106 318.688
lfingers 7.12502
lthumb -13.8454 -11.7931
rfemur -29.2344 5.07954 36.4238
rtibia 44.3917
rfoot -17.0206 -15.2122
rtoes 4.10349
lfemur -13.9656 18.0804 -2.51808
ltibia 64.7138
lfoot -18.2897 21.9749
ltoes 3.89984
351
root -3.70009 16.7483 -22.2607 180.165 -52.8795 -531.663
lowerback -9.24924 -3.82533 2.19873
upperback -6.00208 -5.63248 1.55142
thorax -1.11263 -3.01972 -0.0736319
lowerneck -8.94701 -4.99446 -14.6028
upperneck 26.5586 -9.44174 13.0804
head 11.3595 -4.97329 6.03579
rclavicle 6.54995e-014 2.56432e-014
rhumerus -41.4989 3.93214 -89.3192
rradius 34.2521
rwrist 8.049
rhand -18.7159 -49.8546
rfingers 7.12502
rthumb 7.57938 -79.6988
lclavicle 6.54995e-014 2.56432e-014
lhumerus -26.112 -5.55477 55.2091
lradius 68.7371
lwrist 9.23386
lhand -39.7899 318.176
lfingers 7.12502
lthumb -12.7653 -12.2342
rfemur -29.3504 5.00393 36.287
rtibia 44.4218
rfoot -18.0433 -13.697
rtoes 7.72503
lfemur -14.8708 16.8844 -3.51049
ltibia 65.4839
lfoot -18.8235 21.4446
ltoes 3.23069
352
root -3.68904 16.7382 -22.3184 180.295 -50.5565 -531.339
lowerback -8.89582 -3.35755 2.77407
upperback -6.21583 -5.06509 1.87568
thorax -1.53905 -2.7645 0.0229234
lowerneck -8.62895 -4.89932 -14.0239
upperneck 26.3985 -9.27637 12.4737
head 11.1421 -4.91372 5.72003
rclavicle -3.92848e-014 6.36111e-015
rhumerus -40.9823 5.21188 -90.2408
rradius 34.7834
rwrist 7.27551
rhand -18.9964 -49.8545
rfingers 7.12502
rthumb 7.30861 -79.7082
lclavicle -3.92848e-014 6.36111e-015
lhumerus -27.1264 -5.59184 56.2194
lradius 68.9058
lwrist 10.4432
lhand -40.8318 318.83
lfingers 7.12502
lthumb -13.7695 -11.6457
rfemur -29.3571 7.56324 36.7635
rtibia 44.4531
rfoot -17.8046 -13.8341
rtoes 7.36093
lfemur -15.6822 16.7664 -3.54909
ltibia 66.458
lfoot -18.5429 21.2525
ltoes 2.25101
353
root -3.75298 16.7755 -22.447 182.697 -50.2688 -534.42
lowerback -9.71655 -3.67098 1.20206
upperback -6.04385 -5.37773 1.42693
thorax -0.817765 -2.87312 0.331442
lowerneck -8.27276 -4.87702 -13.3147
upperneck 26.0848 -9.18918 11.7884
head 10.8663 -4.87901 5.34188
rclavicle -9.13416e-014 -7.50412e-015
rhumerus -40.3471 6.56543 -91.1587
rradius 35.2647
rwrist 6.17771
rhand -19.003 -49.9638
rfingers 7.12502
rthumb 7.30227 -79.8178
lclavicle -9.13416e-014 -7.50412e-015
lhumerus -27.3958 -5.42832 57.1619
lradius 68.251
lwrist 10.699
lhand -40.9836 319.301
lfingers 7.12502
lthumb -13.9158 -11.1846
rfemur -28.9729 7.16601 34.8038
rtibia 44.6459
rfoot -19.0283 -12.7898
rtoes 9.99323
lfemur -15.9603 14.8234 -6.22766
ltibia 66.7455
lfoot -18.3039 21.5541
ltoes -2.99168
354
root -3.77758 16.7854 -22.5264 183.53 -48.9297 -534.948
lowerback -10.1108 -3.4389 1.35454
upperback -6.06428 -5.10467 1.46587
thorax -0.633198 -2.74558 0.282867
lowerneck -9.10763 -4.72838 -14.3215
upperneck 26.736 -8.99031 12.557
head 11.3392 -4.7994 5.84781
rclavicle -3.31116e-014 -1.36696e-014
rhumerus -39.5797 6.83707 -91.3306
rradius 35.944
rwrist 7.07157
rhand -17.5472 -50.7604
rfingers 7.12502
rthumb 8.7073 -80.5608
lclavicle -3.31116e-014 -1.36696e-014
lhumerus -27.5841 -5.40083 58.2907
lradius 67.7507
lwrist 11.2752
lhand -42.148 319.908
lfingers 7.12502
lthumb -15.0377 -10.6584
rfemur -29.0688 8.06376 34.5448
rtibia 44.6878
rfoot -18.8184 -12.4915
rtoes 8.49014
lfemur -16.9784 13.7291 -7.08068
ltibia 67.5826
lfoot -19.2656 20.8043
ltoes -3.90368
355
root -3.80161 16.7905 -22.6076 184.648 -47.3178 -535.744
lowerback -10.4922 -3.1242 1.32837
upperback -6.20008 -4.71702 1.43888
thorax -0.566026 -2.56303 0.285666
lowerneck -9.83682 -5.06612 -13.8238
upperneck 27.644 -9.32167 11.4274
head 11.8148 -5.01421 5.2806
rclavicle -2.47238e-014 -1.55052e-014
rhumerus -39.2035 7.2875 -91.8657
rradius 36.6537
rwrist 7.13277
rhand -18.8523 -49.8241
rfingers 7.12502
rthumb 7.44773 -79.673
lclavicle -2.47238e-014 -1.55052e-014
lhumerus -27.9467 -4.88639 59.0425
lradius 66.9137
lwrist 9.68449
lhand -39.7977 320.842
lfingers 7.12502
lthumb -12.7728 -9.56874
rfemur -29.2062 9.11514 34.0858
rtibia 44.7234
rfoot -18.6291 -12.4314
rtoes 6.70079
lfemur -18.1356 12.8418 -8.15616
ltibia 68.4858
lfoot -20.6464 19.5529
ltoes -1.80784
356
root -3.80476 16.7589 -22.6331 183.809 -45.5972 -533.895
lowerback -10.0848 -2.61114 3.36844
upperback -6.51761 -4.23661 1.79843
thorax -1.23777 -2.40158 -0.387829
lowerneck -8.46153 -4.94422 -12.7103
upperneck 26.2748 -9.18124 10.8732
head 10.8982 -4.91253 4.88875
rclavicle -5.91012e-014 -2.44505e-014
rhumerus -39.0707 8.01656 -92.7426
rradius 37.3334
rwrist 6.64814
rhand -20.5674 -48.9101
rfingers 7.12502
rthumb 5.79203 -78.8109
lclavicle -5.91012e-014 -2.44505e-014
lhumerus -28.7479 -5.03657 59.7633
lradius 66.4658
lwrist 9.64945
lhand -39.1495 319.439
lfingers 7.12502
lthumb -12.1478 -10.934
rfemur -29.3278 10.0645 35.5901
rtibia 44.5696
rfoot -20.0781 -10.403
rtoes 15.7197
lfemur -19.4058 11.9687 -6.93854
ltibia 69.8856
lfoot -24.0386 15.465
ltoes 7.4268
357
root -3.81363 16.735 -22.7164 183.835 -43.9452 -533.383
lowerback -10.0761 -2.2707 3.99605
upperback -6.62485 -3.86101 2.01665
thorax -1.3705 -2.24409 -0.474276
lowerneck -9.25504 -5.25255 -13.072
upperneck 26.9041 -9.58836 10.9121
head 11.3807 -5.11943 4.90135
rclavicle -4.2043e-014 0
rhumerus -38.7642 9.14266 -93.6837
rradius 37.897
rwrist 5.60163
rhand -21.6229 -48.5388
rfingers 7.12502
rthumb 4.77291 -78.465
lclavicle -4.2043e-014 0
lhumerus -29.5425 -5.59834 60.6564
lradius 66.6991
lwrist 10.6495
lhand -41.3109 319.777
lfingers 7.12502
lthumb -14.2312 -10.7306
rfemur -29.1935 11.3115 36.2208
rtibia 44.4668
rfoot -20.2734 -9.81107
rtoes 18.1794
lfemur -20.9759 11.8583 -6.88076
ltibia 71.1492
lfoot -22.6759 17.0119
ltoes -0.295986
358
root -3.85249 16.7268 -22.8068 184.801 -42.8734 -534.242
lowerback -10.371 -2.14584 3.97793
upperback -6.6499 -3.72106 1.92579
thorax -1.23565 -2.17879 -0.561924
lowerneck -9.71877 -5.01376 -13.037
upperneck 27.4042 -9.22491 10.7588
head 11.6028 -4.96718 4.8912
rclavicle 1.22501e-014 -1.37161e-014
rhumerus -38.2961 10.3121 -94.388
rradius 38.3541
rwrist 5.09586
rhand -21.4004 -48.4299
rfingers 7.12502
rthumb 4.98773 -78.3512
lclavicle 1.22501e-014 -1.37161e-014
lhumerus -30.046 -5.27074 61.2528
lradius 66.0405
lwrist 9.41109
lhand -38.5943 320.479
lfingers 7.12502
lthumb -11.6124 -9.86317
rfemur -28.9975 11.5951 35.6991
rtibia 44.409
rfoot -19.5909 -10.2727
rtoes 6.59695
lfemur -22.475 11.0295 -8.1395
ltibia 72.0534
lfoot -20.8853 19.1059
ltoes -7.89616
359
root -3.90041 16.7345 -22.885 185.887 -42.0214 -535.352
lowerback -10.9099 -2.0951 3.85251
upperback -6.49172 -3.67043 1.78629
thorax -0.77648 -2.14097 -0.667984
lowerneck -9.90903 -4.98394 -12.7483
upperneck 27.2162 -9.03203 10.3451
head 11.5051 -4.86981 4.70346
rclavicle -7.62836e-014 -4.96962e-015
rhumerus -37.5065 11.095 -94.7304
rradius 38.8215
rwrist 5.5997
rhand -20.3682 -48.8166
rfingers 7.12502
rthumb 5.98436 -78.712
lclavicle -7.62836e-014 -4.96962e-015
lhumerus -30.2947 -5.03926 62.0116
lradius 65.2073
lwrist 8.3892
lhand -36.3131 319.633
lfingers 7.12502
lthumb -9.41192 -10.5975
rfemur -28.8852 10.8425 35.0603
rtibia 44.4902
rfoot -19.6122 -9.70656
rtoes 3.9406
lfemur -23.449 9.28838 -9.48243
ltibia 72.7005
lfoot -22.4939 17.9262
ltoes -4.105
360
root -3.92374 16.7361 -22.9936 185.987 -40.9677 -535.491
lowerback -11.0216 -1.96686 3.87537
upperback -6.35168 -3.50914 1.88552
thorax -0.557998 -2.05199 -0.574545
lowerneck -9.35305 -5.18788 -12.1515
upperneck 26.4976 -9.25462 9.80385
head 11.0914 -4.96453 4.3615
rclavicle 4.77083e-015 4.33351e-014
rhumerus -37.0961 11.6648 -95.2236
rradius 39.3769
rwrist 5.86482
rhand -20.1037 -49.1189
rfingers 7.12502
rthumb 6.23973 -79.007
lclavicle 4.77083e-015 4.33351e-014
lhumerus -30.9668 -5.92006 63.1053
lradius 65.2357
lwrist 8.82335
lhand -37.1637 320.583
lfingers 7.12502
lthumb -10.2326 -9.68621
rfemur -28.4075 11.4378 35.1593
rtibia 44.5321
rfoot -20.182 -8.50212
rtoes 9.92399
lfemur -24.173 7.94366 -9.71755
ltibia 73.2619
lfoot -23.4618 16.7984
ltoes -1.47916
